<?xml version="1.0" encoding="UTF-8"?>
<svg xmlns="http://www.w3.org/2000/svg" xmlns:xlink="http://www.w3.org/1999/xlink" width="10000px" height="10000px" viewBox="0 0 10000 10000" version="1.1">
<g id="surface1">
<path style=" stroke:none;fill-rule:nonzero;fill:rgb(89.019608%,88.235295%,86.274511%);fill-opacity:1;" d="M 0 0 C 3300 0 6600 0 10000 0 C 10000 3300 10000 6600 10000 10000 C 6700 10000 3400 10000 0 10000 C 0 6700 0 3400 0 0 Z M 0 0 "/>
<path style=" stroke:none;fill-rule:nonzero;fill:rgb(7.058824%,7.058824%,7.058824%);fill-opacity:1;" d="M 5520 4100 C 5578.75 4126.25 5578.75 4126.25 5640 4160 C 5649.898438 4189.699219 5649.898438 4189.699219 5660 4220 C 5679.800781 4229.898438 5679.800781 4229.898438 5700 4240 C 5712.5 4301.25 5712.5 4301.25 5720 4360 C 5733.199219 4360 5746.398438 4360 5760 4360 C 5799.257812 4500.867188 5799.988281 4615.492188 5780 4760 C 5760.199219 4760 5740.398438 4760 5720 4760 C 5720 4773.199219 5720 4786.398438 5720 4800 C 5733.199219 4806.601562 5746.398438 4813.199219 5760 4820 C 5749.546875 4875.253906 5737.824219 4926.523438 5720 4980 C 5706.800781 4980 5693.601562 4980 5680 4980 C 5677.757812 4994.101562 5675.515625 5008.203125 5673.203125 5022.734375 C 5658.738281 5085.476562 5636.109375 5138.027344 5608.75 5196.25 C 5599.648438 5215.765625 5590.546875 5235.28125 5581.171875 5255.390625 C 5570.691406 5277.472656 5570.691406 5277.472656 5560 5300 C 5540.199219 5300 5520.398438 5300 5500 5300 C 5500 5313.199219 5500 5326.398438 5500 5340 C 5526.398438 5340 5552.800781 5340 5580 5340 C 5586.601562 5320.199219 5593.199219 5300.398438 5600 5280 C 5639.601562 5289.898438 5639.601562 5289.898438 5680 5300 C 5653.601562 5306.601562 5627.199219 5313.199219 5600 5320 C 5600 5333.199219 5600 5346.398438 5600 5360 C 5586.800781 5360 5573.601562 5360 5560 5360 C 5560 5373.199219 5560 5386.398438 5560 5400 C 5526.40625 5428.046875 5526.40625 5428.046875 5482.5 5458.75 C 5426.5 5497.988281 5398.789062 5521.820312 5360 5580 C 5340.199219 5580 5320.398438 5580 5300 5580 C 5294.226562 5594.851562 5288.449219 5609.699219 5282.5 5625 C 5263.539062 5671.347656 5243.03125 5715.582031 5220 5760 C 5206.800781 5760 5193.601562 5760 5180 5760 C 5173.398438 5773.199219 5166.800781 5786.398438 5160 5800 C 5166.601562 5760.398438 5173.199219 5720.800781 5180 5680 C 5193.199219 5680 5206.398438 5680 5220 5680 C 5220 5660.199219 5220 5640.398438 5220 5620 C 5206.800781 5620 5193.601562 5620 5180 5620 C 5175.875 5631.960938 5171.75 5643.925781 5167.5 5656.25 C 5129.929688 5716.023438 5082.902344 5730.558594 5020 5760 C 5013.398438 5773.199219 5006.800781 5786.398438 5000 5800 C 4964.453125 5821.40625 4964.453125 5821.40625 4921.25 5842.5 C 4907.042969 5849.5625 4892.839844 5856.628906 4878.203125 5863.90625 C 4840 5880 4840 5880 4800 5880 C 4800 5853.601562 4800 5827.199219 4800 5800 C 4753.335938 5784.445312 4707.710938 5771.515625 4660 5760 C 4666.601562 5727 4673.199219 5694 4680 5660 C 4660.613281 5663.710938 4641.226562 5667.425781 4621.25 5671.25 C 4590.929688 5675.582031 4590.929688 5675.582031 4560 5680 C 4540 5660 4540 5660 4538.75 5598.75 C 4539.367188 5569.667969 4539.367188 5569.667969 4540 5540 C 4520.199219 5540 4500.398438 5540 4480 5540 C 4473.398438 5520.199219 4466.800781 5500.398438 4460 5480 C 4380.800781 5499.800781 4301.601562 5519.601562 4220 5540 C 4226.601562 5513.601562 4233.199219 5487.199219 4240 5460 C 4252.789062 5457.523438 4265.574219 5455.050781 4278.75 5452.5 C 4299.167969 5446.3125 4299.167969 5446.3125 4320 5440 C 4329.898438 5420.199219 4329.898438 5420.199219 4340 5400 C 4391.25 5387.5 4391.25 5387.5 4440 5380 C 4433.398438 5333.800781 4426.800781 5287.601562 4420 5240 C 4439.800781 5226.800781 4459.601562 5213.601562 4480 5200 C 4480 5180.199219 4480 5160.398438 4480 5140 C 4513.105469 5119.625 4546.453125 5099.636719 4580 5080 C 4586.601562 5060.199219 4593.199219 5040.398438 4600 5020 C 4629.148438 5016.101562 4658.320312 5012.386719 4687.5 5008.75 C 4711.863281 5005.617188 4711.863281 5005.617188 4736.71875 5002.421875 C 4780 5000 4780 5000 4820 5020 C 4820 5006.800781 4820 4993.601562 4820 4980 C 4853 4980 4886 4980 4920 4980 C 4900.199219 4965.148438 4880.398438 4950.300781 4860 4935 C 4826.25 4909.6875 4826.25 4909.6875 4800 4880 C 4800 4853.601562 4800 4827.199219 4800 4800 C 4813.199219 4800 4826.398438 4800 4840 4800 C 4842.886719 4781.023438 4845.773438 4762.050781 4848.75 4742.5 C 4860 4680 4860 4680 4880 4640 C 4890.882812 4599.289062 4901.234375 4558.433594 4911.25 4517.5 C 4916.636719 4495.585938 4922.027344 4473.671875 4927.578125 4451.09375 C 4931.675781 4434.234375 4935.777344 4417.371094 4940 4400 C 4926.800781 4400 4913.601562 4400 4900 4400 C 4906.601562 4320.800781 4913.199219 4241.601562 4920 4160 C 4966.199219 4166.601562 5012.398438 4173.199219 5060 4180 C 5069.898438 4209.699219 5069.898438 4209.699219 5080 4240 C 5118.332031 4263.332031 5118.332031 4263.332031 5160 4280 C 5173.199219 4286.601562 5186.398438 4293.199219 5200 4300 C 5209.898438 4329.699219 5209.898438 4329.699219 5220 4360 C 5229.898438 4369.488281 5239.800781 4378.976562 5250 4388.75 C 5284.835938 4425.039062 5291.570312 4451.113281 5300 4500 C 5313.199219 4500 5326.398438 4500 5340 4500 C 5340 4519.800781 5340 4539.601562 5340 4560 C 5353.199219 4560 5366.398438 4560 5380 4560 C 5389.898438 4579.800781 5389.898438 4579.800781 5400 4600 C 5445.4375 4465.800781 5472.53125 4334.148438 5491.40625 4193.75 C 5500 4140 5500 4140 5520 4100 Z M 5520 4100 "/>
<path style=" stroke:none;fill-rule:nonzero;fill:rgb(8.627451%,8.235294%,8.235294%);fill-opacity:1;" d="M 5140 4800 C 5206 4800 5272 4800 5340 4800 C 5360 4840 5360 4840 5360 4900 C 5373.199219 4906.601562 5386.398438 4913.199219 5400 4920 C 5409.898438 4929.898438 5409.898438 4929.898438 5420 4940 C 5453.324219 4940.8125 5486.675781 4940.855469 5520 4940 C 5520 4907 5520 4874 5520 4840 C 5546.398438 4846.601562 5572.800781 4853.199219 5600 4860 C 5606.601562 4840.199219 5613.199219 4820.398438 5620 4800 C 5659.667969 4855.210938 5680.015625 4887.722656 5679.921875 4956.640625 C 5656.011719 5084.207031 5624.980469 5187.367188 5560 5300 C 5540.199219 5300 5520.398438 5300 5500 5300 C 5500 5313.199219 5500 5326.398438 5500 5340 C 5526.398438 5340 5552.800781 5340 5580 5340 C 5589.898438 5310.300781 5589.898438 5310.300781 5600 5280 C 5626.398438 5286.601562 5652.800781 5293.199219 5680 5300 C 5653.601562 5306.601562 5627.199219 5313.199219 5600 5320 C 5600 5333.199219 5600 5346.398438 5600 5360 C 5586.800781 5360 5573.601562 5360 5560 5360 C 5560 5373.199219 5560 5386.398438 5560 5400 C 5526.40625 5428.046875 5526.40625 5428.046875 5482.5 5458.75 C 5426.5 5497.988281 5398.789062 5521.820312 5360 5580 C 5340.199219 5580 5320.398438 5580 5300 5580 C 5291.335938 5602.273438 5291.335938 5602.273438 5282.5 5625 C 5263.539062 5671.347656 5243.03125 5715.582031 5220 5760 C 5206.800781 5760 5193.601562 5760 5180 5760 C 5173.398438 5773.199219 5166.800781 5786.398438 5160 5800 C 5166.601562 5760.398438 5173.199219 5720.800781 5180 5680 C 5193.199219 5680 5206.398438 5680 5220 5680 C 5220 5660.199219 5220 5640.398438 5220 5620 C 5206.800781 5620 5193.601562 5620 5180 5620 C 5166.800781 5646.398438 5153.601562 5672.800781 5140 5700 C 5126.800781 5686.800781 5113.601562 5673.601562 5100 5660 C 5106.601562 5640.199219 5113.199219 5620.398438 5120 5600 C 5139.800781 5600 5159.601562 5600 5180 5600 C 5189.28125 5576.488281 5189.28125 5576.488281 5198.75 5552.5 C 5220 5500 5220 5500 5240 5460 C 5169.523438 5510.921875 5169.523438 5510.921875 5120 5580 C 5097.726562 5578.144531 5097.726562 5578.144531 5075 5576.25 C 5010.921875 5580.617188 4987.195312 5598.050781 4940 5640 C 4933.398438 5620.199219 4926.800781 5600.398438 4920 5580 C 4900.199219 5573.398438 4880.398438 5566.800781 4860 5560 C 4860 5573.199219 4860 5586.398438 4860 5600 C 4833.601562 5600 4807.199219 5600 4780 5600 C 4780 5586.800781 4780 5573.601562 4780 5560 C 4740.398438 5573.199219 4700.800781 5586.398438 4660 5600 C 4660 5547.199219 4660 5494.398438 4660 5440 C 4640.199219 5433.398438 4620.398438 5426.800781 4600 5420 C 4609.898438 5390.300781 4609.898438 5390.300781 4620 5360 C 4613.398438 5353.398438 4606.800781 5346.800781 4600 5340 C 4609.664062 5291.671875 4624.390625 5246.832031 4640 5200 C 4659.800781 5200 4679.601562 5200 4700 5200 C 4680.199219 5193.398438 4660.398438 5186.800781 4640 5180 C 4640 5166.800781 4640 5153.601562 4640 5140 C 4653.199219 5140 4666.398438 5140 4680 5140 C 4680 5126.800781 4680 5113.601562 4680 5100 C 4776.878906 5088.601562 4822.664062 5125.003906 4900 5180 C 4913.199219 5180 4926.398438 5180 4940 5180 C 4946.601562 5199.800781 4953.199219 5219.601562 4960 5240 C 4960 5200.398438 4960 5160.800781 4960 5120 C 4973.199219 5120 4986.398438 5120 5000 5120 C 5000 5087 5000 5054 5000 5020 C 5019.800781 5020 5039.601562 5020 5060 5020 C 5040.199219 5013.398438 5020.398438 5006.800781 5000 5000 C 5006.601562 4973.601562 5013.199219 4947.199219 5020 4920 C 5046.398438 4913.398438 5072.800781 4906.800781 5100 4900 C 5100 4886.800781 5100 4873.601562 5100 4860 C 5113.199219 4853.398438 5126.398438 4846.800781 5140 4840 C 5140 4826.800781 5140 4813.601562 5140 4800 Z M 5340 4960 C 5340 4979.800781 5340 4999.601562 5340 5020 C 5359.800781 5006.800781 5379.601562 4993.601562 5400 4980 C 5380.199219 4973.398438 5360.398438 4966.800781 5340 4960 Z M 5340 4960 "/>
<path style=" stroke:none;fill-rule:nonzero;fill:rgb(51.372552%,50.980395%,49.803922%);fill-opacity:1;" d="M 4680 5100 C 4776.878906 5088.601562 4822.664062 5125.003906 4900 5180 C 4913.199219 5180 4926.398438 5180 4940 5180 C 4946.601562 5199.800781 4953.199219 5219.601562 4960 5240 C 4966.601562 5220.199219 4973.199219 5200.398438 4980 5180 C 4999.800781 5180 5019.601562 5180 5040 5180 C 5040 5199.800781 5040 5219.601562 5040 5240 C 5059.800781 5246.601562 5079.601562 5253.199219 5100 5260 C 5106.601562 5246.800781 5113.199219 5233.601562 5120 5220 C 5133.199219 5220 5146.398438 5220 5160 5220 C 5160 5253 5160 5286 5160 5320 C 5179.800781 5320 5199.601562 5320 5220 5320 C 5226.601562 5339.800781 5233.199219 5359.601562 5240 5380 C 5309.300781 5370.101562 5309.300781 5370.101562 5380 5360 C 5373.398438 5379.800781 5366.800781 5399.601562 5360 5420 C 5346.800781 5420 5333.601562 5420 5320 5420 C 5320 5433.199219 5320 5446.398438 5320 5460 C 5306.800781 5473.199219 5293.601562 5486.398438 5280 5500 C 5280.414062 5521.449219 5280.824219 5542.898438 5281.25 5565 C 5279.882812 5646.96875 5260.917969 5690.097656 5220 5760 C 5206.800781 5760 5193.601562 5760 5180 5760 C 5173.398438 5773.199219 5166.800781 5786.398438 5160 5800 C 5166.601562 5760.398438 5173.199219 5720.800781 5180 5680 C 5193.199219 5680 5206.398438 5680 5220 5680 C 5220 5660.199219 5220 5640.398438 5220 5620 C 5206.800781 5620 5193.601562 5620 5180 5620 C 5166.800781 5646.398438 5153.601562 5672.800781 5140 5700 C 5126.800781 5686.800781 5113.601562 5673.601562 5100 5660 C 5106.601562 5640.199219 5113.199219 5620.398438 5120 5600 C 5139.800781 5600 5159.601562 5600 5180 5600 C 5186.1875 5584.324219 5192.375 5568.648438 5198.75 5552.5 C 5220 5500 5220 5500 5240 5460 C 5169.523438 5510.921875 5169.523438 5510.921875 5120 5580 C 5097.726562 5578.144531 5097.726562 5578.144531 5075 5576.25 C 5010.921875 5580.617188 4987.195312 5598.050781 4940 5640 C 4933.398438 5620.199219 4926.800781 5600.398438 4920 5580 C 4900.199219 5573.398438 4880.398438 5566.800781 4860 5560 C 4860 5573.199219 4860 5586.398438 4860 5600 C 4833.601562 5600 4807.199219 5600 4780 5600 C 4780 5586.800781 4780 5573.601562 4780 5560 C 4740.398438 5573.199219 4700.800781 5586.398438 4660 5600 C 4660 5547.199219 4660 5494.398438 4660 5440 C 4640.199219 5433.398438 4620.398438 5426.800781 4600 5420 C 4606.601562 5400.199219 4613.199219 5380.398438 4620 5360 C 4613.398438 5353.398438 4606.800781 5346.800781 4600 5340 C 4609.664062 5291.671875 4624.390625 5246.832031 4640 5200 C 4659.800781 5200 4679.601562 5200 4700 5200 C 4680.199219 5193.398438 4660.398438 5186.800781 4640 5180 C 4640 5166.800781 4640 5153.601562 4640 5140 C 4653.199219 5140 4666.398438 5140 4680 5140 C 4680 5126.800781 4680 5113.601562 4680 5100 Z M 4680 5100 "/>
<path style=" stroke:none;fill-rule:nonzero;fill:rgb(44.313726%,43.921569%,42.745098%);fill-opacity:1;" d="M 5140 4800 C 5206 4800 5272 4800 5340 4800 C 5360 4840 5360 4840 5360 4900 C 5373.199219 4906.601562 5386.398438 4913.199219 5400 4920 C 5400 4939.800781 5400 4959.601562 5400 4980 C 5380.199219 4986.601562 5360.398438 4993.199219 5340 5000 C 5359.800781 5000 5379.601562 5000 5400 5000 C 5400 5033 5400 5066 5400 5100 C 5413.199219 5106.601562 5426.398438 5113.199219 5440 5120 C 5433.398438 5159.601562 5426.800781 5199.199219 5420 5240 C 5406.800781 5240 5393.601562 5240 5380 5240 C 5380 5226.800781 5380 5213.601562 5380 5200 C 5366.800781 5213.199219 5353.601562 5226.398438 5340 5240 C 5346.601562 5259.800781 5353.199219 5279.601562 5360 5300 C 5379.800781 5300 5399.601562 5300 5420 5300 C 5420 5313.199219 5420 5326.398438 5420 5340 C 5373.800781 5340 5327.601562 5340 5280 5340 C 5273.398438 5326.800781 5266.800781 5313.601562 5260 5300 C 5219.507812 5286.957031 5219.507812 5286.957031 5180 5280 C 5180 5260.199219 5180 5240.398438 5180 5220 C 5160.199219 5206.800781 5140.398438 5193.601562 5120 5180 C 5120 5160.199219 5120 5140.398438 5120 5120 C 5060.601562 5110.101562 5060.601562 5110.101562 5000 5100 C 5000 5073.601562 5000 5047.199219 5000 5020 C 5019.800781 5020 5039.601562 5020 5060 5020 C 5040.199219 5013.398438 5020.398438 5006.800781 5000 5000 C 5006.601562 4973.601562 5013.199219 4947.199219 5020 4920 C 5046.398438 4913.398438 5072.800781 4906.800781 5100 4900 C 5100 4886.800781 5100 4873.601562 5100 4860 C 5113.199219 4853.398438 5126.398438 4846.800781 5140 4840 C 5140 4826.800781 5140 4813.601562 5140 4800 Z M 5140 4800 "/>
<path style=" stroke:none;fill-rule:nonzero;fill:rgb(36.470589%,36.078432%,35.294119%);fill-opacity:1;" d="M 4680 5100 C 4776.878906 5088.601562 4822.664062 5125.003906 4900 5180 C 4913.199219 5180 4926.398438 5180 4940 5180 C 4940 5193.199219 4940 5206.398438 4940 5220 C 4900.398438 5239.800781 4860.800781 5259.601562 4820 5280 C 4874.320312 5337.484375 4874.320312 5337.484375 4940 5380 C 4933.398438 5360.199219 4926.800781 5340.398438 4920 5320 C 4933.199219 5313.398438 4946.398438 5306.800781 4960 5300 C 4986.398438 5319.800781 5012.800781 5339.601562 5040 5360 C 5016.964844 5409.359375 4999.042969 5440.957031 4960 5480 C 4899.867188 5501.335938 4882.964844 5500.988281 4820 5480 C 4833.199219 5519.601562 4846.398438 5559.199219 4860 5600 C 4833.601562 5600 4807.199219 5600 4780 5600 C 4780 5586.800781 4780 5573.601562 4780 5560 C 4740.398438 5573.199219 4700.800781 5586.398438 4660 5600 C 4660 5547.199219 4660 5494.398438 4660 5440 C 4640.199219 5433.398438 4620.398438 5426.800781 4600 5420 C 4606.601562 5400.199219 4613.199219 5380.398438 4620 5360 C 4613.398438 5353.398438 4606.800781 5346.800781 4600 5340 C 4609.664062 5291.671875 4624.390625 5246.832031 4640 5200 C 4659.800781 5200 4679.601562 5200 4700 5200 C 4680.199219 5193.398438 4660.398438 5186.800781 4640 5180 C 4640 5166.800781 4640 5153.601562 4640 5140 C 4653.199219 5140 4666.398438 5140 4680 5140 C 4680 5126.800781 4680 5113.601562 4680 5100 Z M 4680 5100 "/>
<path style=" stroke:none;fill-rule:nonzero;fill:rgb(44.705883%,44.313726%,43.137255%);fill-opacity:1;" d="M 4940 5300 C 4973 5319.800781 5006 5339.601562 5040 5360 C 5016.964844 5409.359375 4999.042969 5440.957031 4960 5480 C 4899.867188 5501.335938 4882.964844 5500.988281 4820 5480 C 4833.199219 5519.601562 4846.398438 5559.199219 4860 5600 C 4833.601562 5600 4807.199219 5600 4780 5600 C 4780 5586.800781 4780 5573.601562 4780 5560 C 4740.398438 5573.199219 4700.800781 5586.398438 4660 5600 C 4657.5 5465 4657.5 5465 4680 5420 C 4699.800781 5420 4719.601562 5420 4740 5420 C 4753.199219 5400.199219 4766.398438 5380.398438 4780 5360 C 4841.585938 5354.867188 4884.226562 5352.113281 4940 5380 C 4933.398438 5360.199219 4926.800781 5340.398438 4920 5320 C 4926.601562 5313.398438 4933.199219 5306.800781 4940 5300 Z M 4940 5300 "/>
<path style=" stroke:none;fill-rule:nonzero;fill:rgb(46.27451%,45.882353%,44.705883%);fill-opacity:1;" d="M 5320 5000 C 5346.398438 5000 5372.800781 5000 5400 5000 C 5400 5033 5400 5066 5400 5100 C 5413.199219 5106.601562 5426.398438 5113.199219 5440 5120 C 5433.398438 5159.601562 5426.800781 5199.199219 5420 5240 C 5406.800781 5240 5393.601562 5240 5380 5240 C 5380 5226.800781 5380 5213.601562 5380 5200 C 5366.800781 5213.199219 5353.601562 5226.398438 5340 5240 C 5346.601562 5259.800781 5353.199219 5279.601562 5360 5300 C 5379.800781 5300 5399.601562 5300 5420 5300 C 5420 5313.199219 5420 5326.398438 5420 5340 C 5373.800781 5340 5327.601562 5340 5280 5340 C 5273.398438 5326.800781 5266.800781 5313.601562 5260 5300 C 5219.507812 5286.957031 5219.507812 5286.957031 5180 5280 C 5180 5260.199219 5180 5240.398438 5180 5220 C 5160.199219 5206.800781 5140.398438 5193.601562 5120 5180 C 5126.601562 5160.199219 5133.199219 5140.398438 5140 5120 C 5173.414062 5124.949219 5173.414062 5124.949219 5207.5 5130 C 5274.40625 5140.910156 5274.40625 5140.910156 5320 5140 C 5320 5093.800781 5320 5047.601562 5320 5000 Z M 5320 5000 "/>
<path style=" stroke:none;fill-rule:nonzero;fill:rgb(40.000001%,40.000001%,38.82353%);fill-opacity:1;" d="M 5600 4800 C 5640 4820 5640 4820 5665 4875 C 5682.246094 4949.738281 5680.152344 4975.40625 5640 5040 C 5557.242188 5100 5557.242188 5100 5500 5100 C 5478.316406 5021.941406 5481.597656 4990.03125 5520 4920 C 5520 4893.601562 5520 4867.199219 5520 4840 C 5546.398438 4846.601562 5572.800781 4853.199219 5600 4860 C 5600 4840.199219 5600 4820.398438 5600 4800 Z M 5600 4800 "/>
<path style=" stroke:none;fill-rule:nonzero;fill:rgb(36.470589%,36.078432%,35.294119%);fill-opacity:1;" d="M 5340 5360 C 5353.199219 5360 5366.398438 5360 5380 5360 C 5373.398438 5379.800781 5366.800781 5399.601562 5360 5420 C 5346.800781 5420 5333.601562 5420 5320 5420 C 5320 5433.199219 5320 5446.398438 5320 5460 C 5306.800781 5473.199219 5293.601562 5486.398438 5280 5500 C 5280.414062 5521.449219 5280.824219 5542.898438 5281.25 5565 C 5279.882812 5646.96875 5260.917969 5690.097656 5220 5760 C 5206.800781 5760 5193.601562 5760 5180 5760 C 5173.398438 5773.199219 5166.800781 5786.398438 5160 5800 C 5166.601562 5760.398438 5173.199219 5720.800781 5180 5680 C 5193.199219 5680 5206.398438 5680 5220 5680 C 5220 5660.199219 5220 5640.398438 5220 5620 C 5206.800781 5620 5193.601562 5620 5180 5620 C 5166.800781 5646.398438 5153.601562 5672.800781 5140 5700 C 5126.800781 5686.800781 5113.601562 5673.601562 5100 5660 C 5106.601562 5640.199219 5113.199219 5620.398438 5120 5600 C 5139.800781 5600 5159.601562 5600 5180 5600 C 5199.800781 5540.601562 5219.601562 5481.199219 5240 5420 C 5273 5413.398438 5306 5406.800781 5340 5400 C 5340 5386.800781 5340 5373.601562 5340 5360 Z M 5340 5360 "/>
<path style=" stroke:none;fill-rule:nonzero;fill:rgb(54.509807%,53.725493%,52.549022%);fill-opacity:1;" d="M 4960 5180 C 4986.398438 5180 5012.800781 5180 5040 5180 C 5040 5199.800781 5040 5219.601562 5040 5240 C 5059.800781 5246.601562 5079.601562 5253.199219 5100 5260 C 5106.601562 5246.800781 5113.199219 5233.601562 5120 5220 C 5133.199219 5220 5146.398438 5220 5160 5220 C 5160 5246.398438 5160 5272.800781 5160 5300 C 5007.5 5340 5007.5 5340 4940 5340 C 4940 5353.199219 4940 5366.398438 4940 5380 C 4880 5360 4880 5360 4840 5320 C 4820.199219 5306.800781 4800.398438 5293.601562 4780 5280 C 4868.617188 5218.460938 4868.617188 5218.460938 4926.25 5226.25 C 4942.957031 5233.054688 4942.957031 5233.054688 4960 5240 C 4960 5220.199219 4960 5200.398438 4960 5180 Z M 4960 5180 "/>
<path style=" stroke:none;fill-rule:nonzero;fill:rgb(2.745098%,2.745098%,2.745098%);fill-opacity:1;" d="M 4980 4960 C 4986.601562 4973.199219 4993.199219 4986.398438 5000 5000 C 5040.492188 5013.042969 5040.492188 5013.042969 5080 5020 C 5060.199219 5029.898438 5060.199219 5029.898438 5040 5040 C 5026.800781 5033.398438 5013.601562 5026.800781 5000 5020 C 5006.601562 5039.800781 5013.199219 5059.601562 5020 5080 C 5013.398438 5093.199219 5006.800781 5106.398438 5000 5120 C 4986.800781 5120 4973.601562 5120 4960 5120 C 4966.601562 5159.601562 4973.199219 5199.199219 4980 5240 C 4960.199219 5240 4940.398438 5240 4920 5240 C 4926.601562 5220.199219 4933.199219 5200.398438 4940 5180 C 4920.199219 5186.601562 4900.398438 5193.199219 4880 5200 C 4853.601562 5173.601562 4827.199219 5147.199219 4800 5120 C 4832.46875 5085.824219 4865.863281 5052.511719 4900 5020 C 4913.199219 5020 4926.398438 5020 4940 5020 C 4940 5033.199219 4940 5046.398438 4940 5060 C 4953.199219 5060 4966.398438 5060 4980 5060 C 4973.398438 5040.199219 4966.800781 5020.398438 4960 5000 C 4966.601562 4986.800781 4973.199219 4973.601562 4980 4960 Z M 4980 4960 "/>
<path style=" stroke:none;fill-rule:nonzero;fill:rgb(30.19608%,29.803923%,29.019609%);fill-opacity:1;" d="M 5300 5000 C 5332.074219 5050.941406 5341.289062 5072.28125 5331.171875 5132.890625 C 5327.484375 5148.4375 5323.796875 5163.984375 5320 5180 C 5281.636719 5170.953125 5243.3125 5161.757812 5205 5152.5 C 5183.652344 5147.394531 5162.304688 5142.289062 5140.3125 5137.03125 C 5088.828125 5122.492188 5046.480469 5105.949219 5000 5080 C 5000 5060.199219 5000 5040.398438 5000 5020 C 5039.601562 5020 5079.199219 5020 5120 5020 C 5126.601562 5039.800781 5133.199219 5059.601562 5140 5080 C 5209.300781 5070.101562 5209.300781 5070.101562 5280 5060 C 5286.601562 5040.199219 5293.199219 5020.398438 5300 5000 Z M 5300 5000 "/>
<path style=" stroke:none;fill-rule:nonzero;fill:rgb(6.666667%,6.27451%,6.27451%);fill-opacity:1;" d="M 5200 5460 C 5213.199219 5460 5226.398438 5460 5240 5460 C 5215.65625 5529.289062 5191.230469 5568.769531 5140 5620 C 5125.710938 5662.066406 5125.710938 5662.066406 5120 5700 C 5106.800781 5700 5093.601562 5700 5080 5700 C 5066.800781 5680.199219 5053.601562 5660.398438 5040 5640 C 5007 5646.601562 4974 5653.199219 4940 5660 C 4985 5608.75 4985 5608.75 5040 5560 C 5086.25 5563.75 5086.25 5563.75 5120 5580 C 5126.601562 5560.199219 5133.199219 5540.398438 5140 5520 C 5153.199219 5520 5166.398438 5520 5180 5520 C 5186.601562 5500.199219 5193.199219 5480.398438 5200 5460 Z M 5200 5460 "/>
<path style=" stroke:none;fill-rule:nonzero;fill:rgb(25.098041%,25.098041%,24.313726%);fill-opacity:1;" d="M 5560 5040 C 5593 5046.601562 5626 5053.199219 5660 5060 C 5600 5231.429688 5600 5231.429688 5540 5300 C 5526.800781 5286.800781 5513.601562 5273.601562 5500 5260 C 5505 5226.25 5505 5226.25 5520 5180 C 5527.011719 5155.25 5534.023438 5130.5 5541.25 5105 C 5550.53125 5072.824219 5550.53125 5072.824219 5560 5040 Z M 5560 5040 "/>
<path style=" stroke:none;fill-rule:nonzero;fill:rgb(30.980393%,30.588236%,30.19608%);fill-opacity:1;" d="M 5220 5320 C 5220 5359.601562 5220 5399.199219 5220 5440 C 5200.199219 5446.601562 5180.398438 5453.199219 5160 5460 C 5146.800781 5440.199219 5133.601562 5420.398438 5120 5400 C 5120 5413.199219 5120 5426.398438 5120 5440 C 5100.199219 5446.601562 5080.398438 5453.199219 5060 5460 C 5060 5426.667969 5060 5393.332031 5060 5360 C 5046.800781 5346.800781 5033.601562 5333.601562 5020 5320 C 5093.910156 5300.996094 5146.089844 5300.996094 5220 5320 Z M 5220 5320 "/>
<path style=" stroke:none;fill-rule:nonzero;fill:rgb(53.725493%,53.333336%,52.156866%);fill-opacity:1;" d="M 5120 5120 C 5172.800781 5126.601562 5225.601562 5133.199219 5280 5140 C 5276.699219 5151.550781 5273.398438 5163.101562 5270 5175 C 5257.109375 5225.332031 5257.109375 5225.332031 5260 5300 C 5233.601562 5293.398438 5207.199219 5286.800781 5180 5280 C 5180 5260.199219 5180 5240.398438 5180 5220 C 5160.199219 5206.800781 5140.398438 5193.601562 5120 5180 C 5120 5160.199219 5120 5140.398438 5120 5120 Z M 5120 5120 "/>
<path style=" stroke:none;fill-rule:nonzero;fill:rgb(49.803922%,49.411765%,48.235294%);fill-opacity:1;" d="M 4946.25 5236.25 C 4963.988281 5244.085938 4981.726562 5251.925781 5000 5260 C 4980.199219 5289.699219 4980.199219 5289.699219 4960 5320 C 4953.398438 5339.800781 4946.800781 5359.601562 4940 5380 C 4880 5360 4880 5360 4840 5320 C 4820.199219 5306.800781 4800.398438 5293.601562 4780 5280 C 4844.394531 5230.757812 4865.324219 5216.402344 4946.25 5236.25 Z M 4946.25 5236.25 "/>
<path style=" stroke:none;fill-rule:nonzero;fill:rgb(51.372552%,50.588238%,49.803922%);fill-opacity:1;" d="M 5280 4880 C 5320.144531 4885.734375 5360.171875 4892.375 5400 4900 C 5400 4926.398438 5400 4952.800781 5400 4980 C 5373.601562 4986.601562 5347.199219 4993.199219 5320 5000 C 5313.398438 5026.398438 5306.800781 5052.800781 5300 5080 C 5280.199219 5073.398438 5260.398438 5066.800781 5240 5060 C 5257.5 4902.5 5257.5 4902.5 5280 4880 Z M 5280 4880 "/>
<path style=" stroke:none;fill-rule:nonzero;fill:rgb(55.29412%,54.901963%,53.725493%);fill-opacity:1;" d="M 4820 5460 C 4831.550781 5463.300781 4843.101562 5466.601562 4855 5470 C 4905.332031 5482.890625 4905.332031 5482.890625 4980 5480 C 4973.398438 5513 4966.800781 5546 4960 5580 C 4901.425781 5567.449219 4852.78125 5548.277344 4800 5520 C 4806.601562 5500.199219 4813.199219 5480.398438 4820 5460 Z M 4820 5460 "/>
<path style=" stroke:none;fill-rule:nonzero;fill:rgb(3.137255%,3.137255%,3.137255%);fill-opacity:1;" d="M 5260 5460 C 5286.398438 5460 5312.800781 5460 5340 5460 C 5340 5473.199219 5340 5486.398438 5340 5500 C 5359.800781 5493.398438 5379.601562 5486.800781 5400 5480 C 5386.800781 5513 5373.601562 5546 5360 5580 C 5340.199219 5580 5320.398438 5580 5300 5580 C 5293.398438 5593.199219 5286.800781 5606.398438 5280 5620 C 5260 5482.5 5260 5482.5 5260 5460 Z M 5260 5460 "/>
<path style=" stroke:none;fill-rule:nonzero;fill:rgb(52.549022%,51.764709%,50.588238%);fill-opacity:1;" d="M 4745 5337.5 C 4762.324219 5348.636719 4762.324219 5348.636719 4780 5360 C 4766.800781 5386.398438 4753.601562 5412.800781 4740 5440 C 4693.800781 5440 4647.601562 5440 4600 5440 C 4605 5402.5 4605 5402.5 4620 5360 C 4669.304688 5322.597656 4686.421875 5314.71875 4745 5337.5 Z M 4745 5337.5 "/>
<path style=" stroke:none;fill-rule:nonzero;fill:rgb(42.745098%,42.352942%,41.568628%);fill-opacity:1;" d="M 5260 5160 C 5294.175781 5192.46875 5327.488281 5225.863281 5360 5260 C 5360 5273.199219 5360 5286.398438 5360 5300 C 5379.800781 5300 5399.601562 5300 5420 5300 C 5420 5313.199219 5420 5326.398438 5420 5340 C 5373.800781 5340 5327.601562 5340 5280 5340 C 5276.289062 5316.488281 5276.289062 5316.488281 5272.5 5292.5 C 5264.175781 5237.1875 5264.175781 5237.1875 5220 5200 C 5233.199219 5200 5246.398438 5200 5260 5200 C 5260 5186.800781 5260 5173.601562 5260 5160 Z M 5260 5160 "/>
<path style=" stroke:none;fill-rule:nonzero;fill:rgb(33.333334%,32.941177%,32.156864%);fill-opacity:1;" d="M 4960 5500 C 4978.5625 5505.570312 4978.5625 5505.570312 4997.5 5511.25 C 5040.832031 5524.738281 5040.832031 5524.738281 5080 5500 C 5093.199219 5506.601562 5106.398438 5513.199219 5120 5520 C 5120 5539.800781 5120 5559.601562 5120 5580 C 5097.726562 5578.144531 5097.726562 5578.144531 5075 5576.25 C 5010.921875 5580.617188 4987.195312 5598.050781 4940 5640 C 4946.601562 5593.800781 4953.199219 5547.601562 4960 5500 Z M 4960 5500 "/>
<path style=" stroke:none;fill-rule:nonzero;fill:rgb(21.960784%,21.960784%,21.568628%);fill-opacity:1;" d="M 4940 5300 C 4973 5319.800781 5006 5339.601562 5040 5360 C 5016.964844 5409.359375 4999.042969 5440.957031 4960 5480 C 4918.152344 5391.382812 4918.152344 5391.382812 4927.5 5333.75 C 4931.625 5322.613281 4935.75 5311.476562 4940 5300 Z M 4940 5300 "/>
<path style=" stroke:none;fill-rule:nonzero;fill:rgb(54.11765%,53.725493%,52.549022%);fill-opacity:1;" d="M 5600 4800 C 5640 4820 5640 4820 5662.5 4881.25 C 5668.273438 4900.636719 5674.050781 4920.023438 5680 4940 C 5630.179688 4964.910156 5611.785156 4955.535156 5560 4940 C 5560 4926.800781 5560 4913.601562 5560 4900 C 5546.800781 4893.398438 5533.601562 4886.800781 5520 4880 C 5520 4866.800781 5520 4853.601562 5520 4840 C 5546.398438 4846.601562 5572.800781 4853.199219 5600 4860 C 5600 4840.199219 5600 4820.398438 5600 4800 Z M 5600 4800 "/>
<path style=" stroke:none;fill-rule:nonzero;fill:rgb(4.313726%,4.313726%,4.313726%);fill-opacity:1;" d="M 5140 5200 C 5159.800781 5206.601562 5179.601562 5213.199219 5200 5220 C 5200 5239.800781 5200 5259.601562 5200 5280 C 5233 5286.601562 5266 5293.199219 5300 5300 C 5270.300781 5349.5 5270.300781 5349.5 5240 5400 C 5226.800781 5386.800781 5213.601562 5373.601562 5200 5360 C 5206.601562 5346.800781 5213.199219 5333.601562 5220 5320 C 5206.800781 5320 5193.601562 5320 5180 5320 C 5173.398438 5333.199219 5166.800781 5346.398438 5160 5360 C 5140 5222.5 5140 5222.5 5140 5200 Z M 5140 5200 "/>
<path style=" stroke:none;fill-rule:nonzero;fill:rgb(22.745098%,22.352941%,21.960784%);fill-opacity:1;" d="M 5680 4820 C 5686.601562 4833.199219 5693.199219 4846.398438 5700 4860 C 5719.800781 4866.601562 5739.601562 4873.199219 5760 4880 C 5746.800781 4913 5733.601562 4946 5720 4980 C 5706.800781 4980 5693.601562 4980 5680 4980 C 5680 4999.800781 5680 5019.601562 5680 5040 C 5666.800781 5033.398438 5653.601562 5026.800781 5640 5020 C 5653.199219 4954 5666.398438 4888 5680 4820 Z M 5680 4820 "/>
<path style=" stroke:none;fill-rule:nonzero;fill:rgb(9.019608%,9.019608%,8.627451%);fill-opacity:1;" d="M 4600 5740 C 4606.601562 5759.800781 4613.199219 5779.601562 4620 5800 C 4572.742188 5850.519531 4546.707031 5877.765625 4480 5900 C 4486.601562 5867 4493.199219 5834 4500 5800 C 4533 5793.398438 4566 5786.800781 4600 5780 C 4600 5766.800781 4600 5753.601562 4600 5740 Z M 4600 5740 "/>
<path style=" stroke:none;fill-rule:nonzero;fill:rgb(32.549021%,32.156864%,31.37255%);fill-opacity:1;" d="M 4820 5140 C 4832.375 5146.601562 4844.75 5153.199219 4857.5 5160 C 4898.203125 5182.839844 4898.203125 5182.839844 4940 5180 C 4940 5193.199219 4940 5206.398438 4940 5220 C 4900.707031 5241.355469 4860.628906 5261.3125 4820 5280 C 4806.800781 5273.398438 4793.601562 5266.800781 4780 5260 C 4793.199219 5220.398438 4806.398438 5180.800781 4820 5140 Z M 4820 5140 "/>
<path style=" stroke:none;fill-rule:nonzero;fill:rgb(33.725491%,33.725491%,32.941177%);fill-opacity:1;" d="M 4680 5100 C 4713 5100 4746 5100 4780 5100 C 4773.398438 5126.398438 4766.800781 5152.800781 4760 5180 C 4720.398438 5180 4680.800781 5180 4640 5180 C 4640 5166.800781 4640 5153.601562 4640 5140 C 4653.199219 5140 4666.398438 5140 4680 5140 C 4680 5126.800781 4680 5113.601562 4680 5100 Z M 4680 5100 "/>
<path style=" stroke:none;fill-rule:nonzero;fill:rgb(24.313726%,24.313726%,23.529412%);fill-opacity:1;" d="M 4240 5460 C 4299.398438 5460 4358.800781 5460 4420 5460 C 4360.964844 5519.035156 4300.898438 5521.734375 4220 5540 C 4226.601562 5513.601562 4233.199219 5487.199219 4240 5460 Z M 4240 5460 "/>
<path style=" stroke:none;fill-rule:nonzero;fill:rgb(44.313726%,43.921569%,42.745098%);fill-opacity:1;" d="M 4900 5640 C 4959.398438 5649.898438 4959.398438 5649.898438 5020 5660 C 5020 5673.199219 5020 5686.398438 5020 5700 C 5006.800781 5700 4993.601562 5700 4980 5700 C 4980 5713.199219 4980 5726.398438 4980 5740 C 4953.601562 5726.800781 4927.199219 5713.601562 4900 5700 C 4900 5680.199219 4900 5660.398438 4900 5640 Z M 4900 5640 "/>
<path style=" stroke:none;fill-rule:nonzero;fill:rgb(11.372549%,11.372549%,10.980392%);fill-opacity:1;" d="M 4740 5420 C 4807.5 5416.25 4807.5 5416.25 4880 5420 C 4893.199219 5439.800781 4906.398438 5459.601562 4920 5480 C 4860 5480 4800 5480 4740 5480 C 4740 5460.199219 4740 5440.398438 4740 5420 Z M 4740 5420 "/>
<path style=" stroke:none;fill-rule:nonzero;fill:rgb(54.11765%,53.725493%,52.549022%);fill-opacity:1;" d="M 4780 5120 C 4793.199219 5126.601562 4806.398438 5133.199219 4820 5140 C 4832.5 5181.25 4832.5 5181.25 4840 5220 C 4826.800781 5220 4813.601562 5220 4800 5220 C 4793.398438 5239.800781 4786.800781 5259.601562 4780 5280 C 4773.398438 5260.199219 4766.800781 5240.398438 4760 5220 C 4746.800781 5206.800781 4733.601562 5193.601562 4720 5180 C 4733.199219 5180 4746.398438 5180 4760 5180 C 4766.601562 5160.199219 4773.199219 5140.398438 4780 5120 Z M 4780 5120 "/>
<path style=" stroke:none;fill-rule:nonzero;fill:rgb(35.294119%,34.901962%,34.117648%);fill-opacity:1;" d="M 5500 4220 C 5506.601562 4220 5513.199219 4220 5520 4220 C 5520 4292.601562 5520 4365.199219 5520 4440 C 5506.800781 4440 5493.601562 4440 5480 4440 C 5473.398438 4459.800781 5466.800781 4479.601562 5460 4500 C 5479.269531 4311.800781 5479.269531 4311.800781 5500 4220 Z M 5500 4220 "/>
<path style=" stroke:none;fill-rule:nonzero;fill:rgb(52.156866%,51.764709%,50.588238%);fill-opacity:1;" d="M 4660 5480 C 4709.359375 5503.035156 4740.957031 5520.957031 4780 5560 C 4740.398438 5573.199219 4700.800781 5586.398438 4660 5600 C 4660 5560.398438 4660 5520.800781 4660 5480 Z M 4660 5480 "/>
<path style=" stroke:none;fill-rule:nonzero;fill:rgb(24.705882%,24.313726%,23.921569%);fill-opacity:1;" d="M 5340 5360 C 5353.199219 5360 5366.398438 5360 5380 5360 C 5373.398438 5379.800781 5366.800781 5399.601562 5360 5420 C 5346.800781 5420 5333.601562 5420 5320 5420 C 5320 5433.199219 5320 5446.398438 5320 5460 C 5293.601562 5466.601562 5267.199219 5473.199219 5240 5480 C 5246.601562 5453.601562 5253.199219 5427.199219 5260 5400 C 5286.398438 5400 5312.800781 5400 5340 5400 C 5340 5386.800781 5340 5373.601562 5340 5360 Z M 5340 5360 "/>
<path style=" stroke:none;fill-rule:nonzero;fill:rgb(53.725493%,53.333336%,52.156866%);fill-opacity:1;" d="M 5360 5140 C 5390 5167.5 5390 5167.5 5420 5200 C 5420 5213.199219 5420 5226.398438 5420 5240 C 5406.800781 5240 5393.601562 5240 5380 5240 C 5380 5226.800781 5380 5213.601562 5380 5200 C 5353.601562 5206.601562 5327.199219 5213.199219 5300 5220 C 5300 5200.199219 5300 5180.398438 5300 5160 C 5319.800781 5153.398438 5339.601562 5146.800781 5360 5140 Z M 5360 5140 "/>
<path style=" stroke:none;fill-rule:nonzero;fill:rgb(50.196081%,49.803922%,48.627451%);fill-opacity:1;" d="M 5500 4960 C 5506.601562 4973.199219 5513.199219 4986.398438 5520 5000 C 5539.800781 5006.601562 5559.601562 5013.199219 5580 5020 C 5566.800781 5046.398438 5553.601562 5072.800781 5540 5100 C 5526.800781 5100 5513.601562 5100 5500 5100 C 5477.5 5005 5477.5 5005 5500 4960 Z M 5500 4960 "/>
<path style=" stroke:none;fill-rule:nonzero;fill:rgb(50.588238%,50.196081%,49.019608%);fill-opacity:1;" d="M 5180 5220 C 5229.5 5229.898438 5229.5 5229.898438 5280 5240 C 5273.398438 5259.800781 5266.800781 5279.601562 5260 5300 C 5233.601562 5293.398438 5207.199219 5286.800781 5180 5280 C 5180 5260.199219 5180 5240.398438 5180 5220 Z M 5180 5220 "/>
<path style=" stroke:none;fill-rule:nonzero;fill:rgb(60.392159%,59.607846%,58.431375%);fill-opacity:1;" d="M 5000 4920 C 5049.5 4929.898438 5049.5 4929.898438 5100 4940 C 5093.398438 4959.800781 5086.800781 4979.601562 5080 5000 C 5053.601562 5000 5027.199219 5000 5000 5000 C 5000 4973.601562 5000 4947.199219 5000 4920 Z M 5000 4920 "/>
<path style=" stroke:none;fill-rule:nonzero;fill:rgb(29.803923%,29.411766%,28.627452%);fill-opacity:1;" d="M 5440 4500 C 5461.933594 4565.796875 5455.992188 4594.261719 5440 4660 C 5413.601562 4653.398438 5387.199219 4646.800781 5360 4640 C 5366.601562 4613.601562 5373.199219 4587.199219 5380 4560 C 5386.601562 4573.199219 5393.199219 4586.398438 5400 4600 C 5413.199219 4567 5426.398438 4534 5440 4500 Z M 5440 4500 "/>
</g>
</svg>
