<?xml version="1.0" encoding="UTF-8"?>
<svg version="1.1" xmlns="http://www.w3.org/2000/svg" width="500" height="500">
<path d="M0 0 C165 0 330 0 500 0 C500 165 500 330 500 500 C335 500 170 500 0 500 C0 335 0 170 0 0 Z " fill="#E3E1DC" transform="translate(0,0)"/>
<path d="M0 0 C2.9375 1.3125 2.9375 1.3125 6 3 C6.495 4.485 6.495 4.485 7 6 C7.99 6.495 7.99 6.495 9 7 C9.625 10.0625 9.625 10.0625 10 13 C10.66 13 11.32 13 12 13 C13.96290189 20.04335384 13.99939172 25.77466796 13 33 C12.01 33 11.02 33 10 33 C10 33.66 10 34.32 10 35 C10.66 35.33 11.32 35.66 12 36 C11.47731534 38.76276177 10.89130413 41.3260876 10 44 C9.34 44 8.68 44 8 44 C7.88785156 44.70511719 7.77570313 45.41023438 7.66015625 46.13671875 C6.93685092 49.27389512 5.80542309 51.90127906 4.4375 54.8125 C3.98246094 55.78832031 3.52742188 56.76414062 3.05859375 57.76953125 C2.53458984 58.87361328 2.53458984 58.87361328 2 60 C1.01 60 0.02 60 -1 60 C-1 60.66 -1 61.32 -1 62 C0.32 62 1.64 62 3 62 C3.33 61.01 3.66 60.02 4 59 C5.98 59.495 5.98 59.495 8 60 C6.68 60.33 5.36 60.66 4 61 C4 61.66 4 62.32 4 63 C3.34 63 2.68 63 2 63 C2 63.66 2 64.32 2 65 C0.3203125 66.40234375 0.3203125 66.40234375 -1.875 67.9375 C-4.67496035 69.89947938 -6.06062762 71.09094143 -8 74 C-8.99 74 -9.98 74 -11 74 C-11.28875 74.7425 -11.5775 75.485 -11.875 76.25 C-12.82302644 78.56739797 -13.84845911 80.77917115 -15 83 C-15.66 83 -16.32 83 -17 83 C-17.33 83.66 -17.66 84.32 -18 85 C-17.67 83.02 -17.34 81.04 -17 79 C-16.34 79 -15.68 79 -15 79 C-15 78.01 -15 77.02 -15 76 C-15.66 76 -16.32 76 -17 76 C-17.20625 76.598125 -17.4125 77.19625 -17.625 77.8125 C-19.50358026 80.80115041 -21.85492408 81.5278368 -25 83 C-25.33 83.66 -25.66 84.32 -26 85 C-27.77734375 86.0703125 -27.77734375 86.0703125 -29.9375 87.125 C-30.64777344 87.47820312 -31.35804688 87.83140625 -32.08984375 88.1953125 C-34 89 -34 89 -36 89 C-36 87.68 -36 86.36 -36 85 C-38.33317216 84.22227595 -40.61435923 83.57584432 -43 83 C-42.67 81.35 -42.34 79.7 -42 78 C-42.969375 78.185625 -43.93875 78.37125 -44.9375 78.5625 C-46.4534375 78.7790625 -46.4534375 78.7790625 -48 79 C-49 78 -49 78 -49.0625 74.9375 C-49.0315625 73.4834375 -49.0315625 73.4834375 -49 72 C-49.99 72 -50.98 72 -52 72 C-52.33 71.01 -52.66 70.02 -53 69 C-56.96 69.99 -60.92 70.98 -65 72 C-64.67 70.68 -64.34 69.36 -64 68 C-63.360625 67.87625 -62.72125 67.7525 -62.0625 67.625 C-61.0415625 67.315625 -61.0415625 67.315625 -60 67 C-59.505 66.01 -59.505 66.01 -59 65 C-56.4375 64.375 -56.4375 64.375 -54 64 C-54.33 61.69 -54.66 59.38 -55 57 C-54.01 56.34 -53.02 55.68 -52 55 C-52 54.01 -52 53.02 -52 52 C-50.34467377 50.98133771 -48.67739862 49.98189187 -47 49 C-46.67 48.01 -46.34 47.02 -46 46 C-44.54263913 45.80508548 -43.08405407 45.61930642 -41.625 45.4375 C-40.40683594 45.28087891 -40.40683594 45.28087891 -39.1640625 45.12109375 C-37 45 -37 45 -35 46 C-35 45.34 -35 44.68 -35 44 C-33.35 44 -31.7 44 -30 44 C-30.99 43.2575 -31.98 42.515 -33 41.75 C-34.6875 40.484375 -34.6875 40.484375 -36 39 C-36 37.68 -36 36.36 -36 35 C-35.34 35 -34.68 35 -34 35 C-33.855625 34.05125 -33.71125 33.1025 -33.5625 32.125 C-33 29 -33 29 -32 27 C-31.45586302 24.96442021 -30.93828268 22.92167703 -30.4375 20.875 C-30.16808594 19.77929688 -29.89867187 18.68359375 -29.62109375 17.5546875 C-29.41613281 16.71164063 -29.21117187 15.86859375 -29 15 C-29.66 15 -30.32 15 -31 15 C-30.67 11.04 -30.34 7.08 -30 3 C-27.69 3.33 -25.38 3.66 -23 4 C-22.505 5.485 -22.505 5.485 -22 7 C-20.08333333 8.16666667 -20.08333333 8.16666667 -18 9 C-17.34 9.33 -16.68 9.66 -16 10 C-15.505 11.485 -15.505 11.485 -15 13 C-14.505 13.474375 -14.01 13.94875 -13.5 14.4375 C-11.75814029 16.25193719 -11.42144987 17.55559077 -11 20 C-10.34 20 -9.68 20 -9 20 C-9 20.99 -9 21.98 -9 23 C-8.34 23 -7.68 23 -7 23 C-6.505 23.99 -6.505 23.99 -6 25 C-3.72802809 18.29010964 -2.37340148 11.70740747 -1.4296875 4.6875 C-1 2 -1 2 0 0 Z " fill="#121212" transform="translate(276,205)"/>
<path d="M0 0 C3.3 0 6.6 0 10 0 C11 2 11 2 11 5 C11.66 5.33 12.32 5.66 13 6 C13.495 6.495 13.495 6.495 14 7 C15.66617115 7.04063832 17.33388095 7.042721 19 7 C19 5.35 19 3.7 19 2 C20.32 2.33 21.64 2.66 23 3 C23.33 2.01 23.66 1.02 24 0 C25.98341569 2.76063202 27.00084676 4.38609538 26.99609375 7.83203125 C25.80067643 14.21037681 24.24902154 19.36836266 21 25 C20.01 25 19.02 25 18 25 C18 25.66 18 26.32 18 27 C19.32 27 20.64 27 22 27 C22.495 25.515 22.495 25.515 23 24 C24.32 24.33 25.64 24.66 27 25 C25.68 25.33 24.36 25.66 23 26 C23 26.66 23 27.32 23 28 C22.34 28 21.68 28 21 28 C21 28.66 21 29.32 21 30 C19.3203125 31.40234375 19.3203125 31.40234375 17.125 32.9375 C14.32503965 34.89947938 12.93937238 36.09094143 11 39 C10.01 39 9.02 39 8 39 C7.566875 40.11375 7.566875 40.11375 7.125 41.25 C6.17697356 43.56739797 5.15154089 45.77917115 4 48 C3.34 48 2.68 48 2 48 C1.67 48.66 1.34 49.32 1 50 C1.33 48.02 1.66 46.04 2 44 C2.66 44 3.32 44 4 44 C4 43.01 4 42.02 4 41 C3.34 41 2.68 41 2 41 C1.34 42.32 0.68 43.64 0 45 C-0.66 44.34 -1.32 43.68 -2 43 C-1.67 42.01 -1.34 41.02 -1 40 C-0.01 40 0.98 40 2 40 C2.4640625 38.824375 2.4640625 38.824375 2.9375 37.625 C4 35 4 35 5 33 C1.47618313 35.54604597 1.47618313 35.54604597 -1 39 C-2.11375 38.9071875 -2.11375 38.9071875 -3.25 38.8125 C-6.45383006 39.03094296 -7.64031256 39.90250005 -10 42 C-10.33 41.01 -10.66 40.02 -11 39 C-11.99 38.67 -12.98 38.34 -14 38 C-14 38.66 -14 39.32 -14 40 C-15.32 40 -16.64 40 -18 40 C-18 39.34 -18 38.68 -18 38 C-19.98 38.66 -21.96 39.32 -24 40 C-24 37.36 -24 34.72 -24 32 C-24.99 31.67 -25.98 31.34 -27 31 C-26.505 29.515 -26.505 29.515 -26 28 C-26.33 27.67 -26.66 27.34 -27 27 C-26.51671752 24.5835876 -25.78055939 22.34167817 -25 20 C-24.01 20 -23.02 20 -22 20 C-22.99 19.67 -23.98 19.34 -25 19 C-25 18.34 -25 17.68 -25 17 C-24.34 17 -23.68 17 -23 17 C-23 16.34 -23 15.68 -23 15 C-18.15604817 14.43012331 -15.86680877 16.25026932 -12 19 C-11.34 19 -10.68 19 -10 19 C-9.67 19.99 -9.34 20.98 -9 22 C-9 20.02 -9 18.04 -9 16 C-8.34 16 -7.68 16 -7 16 C-7 14.35 -7 12.7 -7 11 C-6.01 11 -5.02 11 -4 11 C-4.99 10.67 -5.98 10.34 -7 10 C-6.67 8.68 -6.34 7.36 -6 6 C-4.68 5.67 -3.36 5.34 -2 5 C-2 4.34 -2 3.68 -2 3 C-1.34 2.67 -0.68 2.34 0 2 C0 1.34 0 0.68 0 0 Z M10 8 C10 8.99 10 9.98 10 11 C10.99 10.34 11.98 9.68 13 9 C12.01 8.67 11.02 8.34 10 8 Z " fill="#161515" transform="translate(257,240)"/>
<path d="M0 0 C4.84395183 -0.56987669 7.13319123 1.25026932 11 4 C11.66 4 12.32 4 13 4 C13.33 4.99 13.66 5.98 14 7 C14.33 6.01 14.66 5.02 15 4 C15.99 4 16.98 4 18 4 C18 4.99 18 5.98 18 7 C18.99 7.33 19.98 7.66 21 8 C21.33 7.34 21.66 6.68 22 6 C22.66 6 23.32 6 24 6 C24 7.65 24 9.3 24 11 C24.99 11 25.98 11 27 11 C27.33 11.99 27.66 12.98 28 14 C31.465 13.505 31.465 13.505 35 13 C34.67 13.99 34.34 14.98 34 16 C33.34 16 32.68 16 32 16 C32 16.66 32 17.32 32 18 C31.34 18.66 30.68 19.32 30 20 C30.020625 21.0725 30.04125 22.145 30.0625 23.25 C29.99419232 27.34846099 29.04597399 29.50479443 27 33 C26.34 33 25.68 33 25 33 C24.67 33.66 24.34 34.32 24 35 C24.33 33.02 24.66 31.04 25 29 C25.66 29 26.32 29 27 29 C27 28.01 27 27.02 27 26 C26.34 26 25.68 26 25 26 C24.34 27.32 23.68 28.64 23 30 C22.34 29.34 21.68 28.68 21 28 C21.33 27.01 21.66 26.02 22 25 C22.99 25 23.98 25 25 25 C25.309375 24.21625 25.61875 23.4325 25.9375 22.625 C27 20 27 20 28 18 C24.47618313 20.54604597 24.47618313 20.54604597 22 24 C20.88625 23.9071875 20.88625 23.9071875 19.75 23.8125 C16.54616994 24.03094296 15.35968744 24.90250005 13 27 C12.67 26.01 12.34 25.02 12 24 C11.01 23.67 10.02 23.34 9 23 C9 23.66 9 24.32 9 25 C7.68 25 6.36 25 5 25 C5 24.34 5 23.68 5 23 C3.02 23.66 1.04 24.32 -1 25 C-1 22.36 -1 19.72 -1 17 C-1.99 16.67 -2.98 16.34 -4 16 C-3.67 15.01 -3.34 14.02 -3 13 C-3.33 12.67 -3.66 12.34 -4 12 C-3.51671752 9.5835876 -2.78055939 7.34167817 -2 5 C-1.01 5 -0.02 5 1 5 C0.01 4.67 -0.98 4.34 -2 4 C-2 3.34 -2 2.68 -2 2 C-1.34 2 -0.68 2 0 2 C0 1.34 0 0.68 0 0 Z " fill="#83827F" transform="translate(234,255)"/>
<path d="M0 0 C3.3 0 6.6 0 10 0 C11 2 11 2 11 5 C11.66 5.33 12.32 5.66 13 6 C13 6.99 13 7.98 13 9 C12.01 9.33 11.02 9.66 10 10 C10.99 10 11.98 10 13 10 C13 11.65 13 13.3 13 15 C13.66 15.33 14.32 15.66 15 16 C14.67 17.98 14.34 19.96 14 22 C13.34 22 12.68 22 12 22 C12 21.34 12 20.68 12 20 C11.34 20.66 10.68 21.32 10 22 C10.33 22.99 10.66 23.98 11 25 C11.99 25 12.98 25 14 25 C14 25.66 14 26.32 14 27 C11.69 27 9.38 27 7 27 C6.67 26.34 6.34 25.68 6 25 C3.97536745 24.34786708 3.97536745 24.34786708 2 24 C2 23.01 2 22.02 2 21 C1.01 20.34 0.02 19.68 -1 19 C-1 18.01 -1 17.02 -1 16 C-3.97 15.505 -3.97 15.505 -7 15 C-7 13.68 -7 12.36 -7 11 C-6.01 11 -5.02 11 -4 11 C-4.99 10.67 -5.98 10.34 -7 10 C-6.67 8.68 -6.34 7.36 -6 6 C-4.68 5.67 -3.36 5.34 -2 5 C-2 4.34 -2 3.68 -2 3 C-1.34 2.67 -0.68 2.34 0 2 C0 1.34 0 0.68 0 0 Z " fill="#71706D" transform="translate(257,240)"/>
<path d="M0 0 C4.84395183 -0.56987669 7.13319123 1.25026932 11 4 C11.66 4 12.32 4 13 4 C13 4.66 13 5.32 13 6 C11.02 6.99 9.04 7.98 7 9 C9.71604715 11.87420123 9.71604715 11.87420123 13 14 C12.67 13.01 12.34 12.02 12 11 C12.66 10.67 13.32 10.34 14 10 C15.32 10.99 16.64 11.98 18 13 C16.84826645 15.46800047 15.95216435 17.04783565 14 19 C10.99340864 20.066855 10.14820941 20.04940314 7 19 C7.66 20.98 8.32 22.96 9 25 C7.68 25 6.36 25 5 25 C5 24.34 5 23.68 5 23 C3.02 23.66 1.04 24.32 -1 25 C-1 22.36 -1 19.72 -1 17 C-1.99 16.67 -2.98 16.34 -4 16 C-3.67 15.01 -3.34 14.02 -3 13 C-3.33 12.67 -3.66 12.34 -4 12 C-3.51671752 9.5835876 -2.78055939 7.34167817 -2 5 C-1.01 5 -0.02 5 1 5 C0.01 4.67 -0.98 4.34 -2 4 C-2 3.34 -2 2.68 -2 2 C-1.34 2 -0.68 2 0 2 C0 1.34 0 0.68 0 0 Z " fill="#5D5C5A" transform="translate(234,255)"/>
<path d="M0 0 C1.65 0.99 3.3 1.98 5 3 C3.84826645 5.46800047 2.95216435 7.04783565 1 9 C-2.00659136 10.066855 -2.85179059 10.04940314 -6 9 C-5.34 10.98 -4.68 12.96 -4 15 C-5.32 15 -6.64 15 -8 15 C-8 14.34 -8 13.68 -8 13 C-9.98 13.66 -11.96 14.32 -14 15 C-14.125 8.25 -14.125 8.25 -13 6 C-12.01 6 -11.02 6 -10 6 C-9.34 5.01 -8.68 4.02 -8 3 C-4.92078868 2.74339906 -2.78863007 2.60568496 0 4 C-0.33 3.01 -0.66 2.02 -1 1 C-0.67 0.67 -0.34 0.34 0 0 Z " fill="#72716E" transform="translate(247,265)"/>
<path d="M0 0 C1.32 0 2.64 0 4 0 C4 1.65 4 3.3 4 5 C4.66 5.33 5.32 5.66 6 6 C5.67 7.98 5.34 9.96 5 12 C4.34 12 3.68 12 3 12 C3 11.34 3 10.68 3 10 C2.34 10.66 1.68 11.32 1 12 C1.33 12.99 1.66 13.98 2 15 C2.99 15 3.98 15 5 15 C5 15.66 5 16.32 5 17 C2.69 17 0.38 17 -2 17 C-2.33 16.34 -2.66 15.68 -3 15 C-5.02463255 14.34786708 -5.02463255 14.34786708 -7 14 C-7 13.01 -7 12.02 -7 11 C-7.99 10.34 -8.98 9.68 -10 9 C-9.67 8.01 -9.34 7.02 -9 6 C-7.329375 6.2475 -7.329375 6.2475 -5.625 6.5 C-2.27967967 7.0455458 -2.27967967 7.0455458 0 7 C0 4.69 0 2.38 0 0 Z " fill="#767572" transform="translate(266,250)"/>
<path d="M0 0 C2 1 2 1 3.25 3.75 C4.1123838 7.48699648 4.00763854 8.77032061 2 12 C-2.13793103 15 -2.13793103 15 -5 15 C-6.08416595 11.0970026 -5.92020735 9.50155458 -4 6 C-4 4.68 -4 3.36 -4 2 C-2.68 2.33 -1.36 2.66 0 3 C0 2.01 0 1.02 0 0 Z " fill="#666663" transform="translate(280,240)"/>
<path d="M0 0 C0.66 0 1.32 0 2 0 C1.67 0.99 1.34 1.98 1 3 C0.34 3 -0.32 3 -1 3 C-1 3.66 -1 4.32 -1 5 C-1.66 5.66 -2.32 6.32 -3 7 C-2.979375 8.0725 -2.95875 9.145 -2.9375 10.25 C-3.00580768 14.34846099 -3.95402601 16.50479443 -6 20 C-6.66 20 -7.32 20 -8 20 C-8.33 20.66 -8.66 21.32 -9 22 C-8.67 20.02 -8.34 18.04 -8 16 C-7.34 16 -6.68 16 -6 16 C-6 15.01 -6 14.02 -6 13 C-6.66 13 -7.32 13 -8 13 C-8.66 14.32 -9.32 15.64 -10 17 C-10.66 16.34 -11.32 15.68 -12 15 C-11.67 14.01 -11.34 13.02 -11 12 C-10.01 12 -9.02 12 -8 12 C-7.01 9.03 -6.02 6.06 -5 3 C-3.35 2.67 -1.7 2.34 0 2 C0 1.34 0 0.68 0 0 Z " fill="#5D5C5A" transform="translate(267,268)"/>
<path d="M0 0 C1.32 0 2.64 0 4 0 C4 0.99 4 1.98 4 3 C4.99 3.33 5.98 3.66 7 4 C7.33 3.34 7.66 2.68 8 2 C8.66 2 9.32 2 10 2 C10 3.32 10 4.64 10 6 C2.375 8 2.375 8 -1 8 C-1 8.66 -1 9.32 -1 10 C-4 9 -4 9 -6 7 C-6.99 6.34 -7.98 5.68 -9 5 C-4.56923077 1.92307692 -4.56923077 1.92307692 -1.6875 2.3125 C-0.8521875 2.6528125 -0.8521875 2.6528125 0 3 C0 2.01 0 1.02 0 0 Z " fill="#8B8986" transform="translate(248,259)"/>
<path d="M0 0 C0.33 0.66 0.66 1.32 1 2 C3.02463255 2.65213292 3.02463255 2.65213292 5 3 C4.01 3.495 4.01 3.495 3 4 C2.34 3.67 1.68 3.34 1 3 C1.33 3.99 1.66 4.98 2 6 C1.67 6.66 1.34 7.32 1 8 C0.34 8 -0.32 8 -1 8 C-0.67 9.98 -0.34 11.96 0 14 C-0.99 14 -1.98 14 -3 14 C-2.67 13.01 -2.34 12.02 -2 11 C-2.99 11.33 -3.98 11.66 -5 12 C-6.32 10.68 -7.64 9.36 -9 8 C-7.37660195 6.29115995 -5.70680947 4.62553283 -4 3 C-3.34 3 -2.68 3 -2 3 C-2 3.66 -2 4.32 -2 5 C-1.34 5 -0.68 5 0 5 C-0.33 4.01 -0.66 3.02 -1 2 C-0.67 1.34 -0.34 0.68 0 0 Z " fill="#070707" transform="translate(249,248)"/>
<path d="M0 0 C1.60367292 2.54700993 2.06442578 3.61401546 1.55859375 6.64453125 C1.37425781 7.42183594 1.18992187 8.19914062 1 9 C-0.91808109 8.54762239 -2.83442033 8.08785537 -4.75 7.625 C-5.81734375 7.36976563 -6.8846875 7.11453125 -7.984375 6.8515625 C-10.55852722 6.12466459 -12.67600186 5.2973776 -15 4 C-15 3.01 -15 2.02 -15 1 C-13.02 1 -11.04 1 -9 1 C-8.67 1.99 -8.34 2.98 -8 4 C-4.535 3.505 -4.535 3.505 -1 3 C-0.67 2.01 -0.34 1.02 0 0 Z " fill="#4D4C4A" transform="translate(265,250)"/>
<path d="M0 0 C0.66 0 1.32 0 2 0 C0.78273716 3.4645173 -0.43854318 5.43854318 -3 8 C-3.71447643 10.10332891 -3.71447643 10.10332891 -4 12 C-4.66 12 -5.32 12 -6 12 C-6.66 11.01 -7.32 10.02 -8 9 C-9.65 9.33 -11.3 9.66 -13 10 C-10.75 7.4375 -10.75 7.4375 -8 5 C-5.6875 5.1875 -5.6875 5.1875 -4 6 C-3.67 5.01 -3.34 4.02 -3 3 C-2.34 3 -1.68 3 -1 3 C-0.67 2.01 -0.34 1.02 0 0 Z " fill="#111010" transform="translate(260,273)"/>
<path d="M0 0 C1.65 0.33 3.3 0.66 5 1 C2 9.57142857 2 9.57142857 -1 13 C-1.66 12.34 -2.32 11.68 -3 11 C-2.75 9.3125 -2.75 9.3125 -2 7 C-1.649375 5.7625 -1.29875 4.525 -0.9375 3.25 C-0.4734375 1.64125 -0.4734375 1.64125 0 0 Z " fill="#40403E" transform="translate(278,252)"/>
<path d="M0 0 C0 1.98 0 3.96 0 6 C-0.99 6.33 -1.98 6.66 -3 7 C-3.66 6.01 -4.32 5.02 -5 4 C-5 4.66 -5 5.32 -5 6 C-5.99 6.33 -6.98 6.66 -8 7 C-8 5.33333333 -8 3.66666667 -8 2 C-8.66 1.34 -9.32 0.68 -10 0 C-6.30458414 -0.95024979 -3.69541586 -0.95024979 0 0 Z " fill="#4F4E4D" transform="translate(261,266)"/>
<path d="M0 0 C2.64 0.33 5.28 0.66 8 1 C7.835 1.5775 7.67 2.155 7.5 2.75 C6.85537969 5.26664369 6.85537969 5.26664369 7 9 C5.68 8.67 4.36 8.34 3 8 C3 7.01 3 6.02 3 5 C2.01 4.34 1.02 3.68 0 3 C0 2.01 0 1.02 0 0 Z " fill="#898885" transform="translate(256,256)"/>
<path d="M0 0 C0.886875 0.391875 1.77375 0.78375 2.6875 1.1875 C1.6975 2.6725 1.6975 2.6725 0.6875 4.1875 C0.3575 5.1775 0.0275 6.1675 -0.3125 7.1875 C-3.3125 6.1875 -3.3125 6.1875 -5.3125 4.1875 C-6.3025 3.5275 -7.2925 2.8675 -8.3125 2.1875 C-5.09279771 -0.27462528 -4.04623082 -0.99247171 0 0 Z " fill="#7F7E7B" transform="translate(247.3125,261.8125)"/>
<path d="M0 0 C2.00720923 0.28674418 4.0085944 0.61866701 6 1 C6 2.32 6 3.64 6 5 C4.68 5.33 3.36 5.66 2 6 C1.67 7.32 1.34 8.64 1 10 C0.01 9.67 -0.98 9.34 -2 9 C-1.125 1.125 -1.125 1.125 0 0 Z " fill="#83817F" transform="translate(264,244)"/>
<path d="M0 0 C0.5775 0.165 1.155 0.33 1.75 0.5 C4.26664369 1.14462031 4.26664369 1.14462031 8 1 C7.67 2.65 7.34 4.3 7 6 C4.07120629 5.37240135 1.63904371 4.41377341 -1 3 C-0.67 2.01 -0.34 1.02 0 0 Z " fill="#8D8C89" transform="translate(241,273)"/>
<path d="M0 0 C1.32 0 2.64 0 4 0 C4 0.66 4 1.32 4 2 C4.99 1.67 5.98 1.34 7 1 C6.34 2.65 5.68 4.3 5 6 C4.01 6 3.02 6 2 6 C1.67 6.66 1.34 7.32 1 8 C0 1.125 0 1.125 0 0 Z " fill="#080808" transform="translate(263,273)"/>
<path d="M0 0 C0.86625 0.556875 0.86625 0.556875 1.75 1.125 C1.09 2.445 0.43 3.765 -0.25 5.125 C-2.56 5.125 -4.87 5.125 -7.25 5.125 C-7 3.25 -7 3.25 -6.25 1.125 C-3.78477471 -0.74517091 -2.92889069 -1.13901305 0 0 Z " fill="#868481" transform="translate(237.25,266.875)"/>
<path d="M0 0 C1.70884005 1.62339805 3.37446717 3.29319053 5 5 C5 5.66 5 6.32 5 7 C5.99 7 6.98 7 8 7 C8 7.66 8 8.32 8 9 C5.69 9 3.38 9 1 9 C0.814375 7.824375 0.814375 7.824375 0.625 6.625 C0.20882007 3.85942178 0.20882007 3.85942178 -2 2 C-1.34 2 -0.68 2 0 2 C0 1.34 0 0.68 0 0 Z " fill="#6D6C6A" transform="translate(263,258)"/>
<path d="M0 0 C0.928125 0.2784375 0.928125 0.2784375 1.875 0.5625 C4.04160178 1.23686176 4.04160178 1.23686176 6 0 C6.66 0.33 7.32 0.66 8 1 C8 1.99 8 2.98 8 4 C6.88625 3.9071875 6.88625 3.9071875 5.75 3.8125 C2.54616994 4.03094296 1.35968744 4.90250005 -1 7 C-0.67 4.69 -0.34 2.38 0 0 Z " fill="#555452" transform="translate(248,275)"/>
<path d="M0 0 C1.65 0.99 3.3 1.98 5 3 C3.84826645 5.46800047 2.95216435 7.04783565 1 9 C-1.09230769 4.56923077 -1.09230769 4.56923077 -0.625 1.6875 C-0.41875 1.130625 -0.2125 0.57375 0 0 Z " fill="#383837" transform="translate(247,265)"/>
<path d="M0 0 C2 1 2 1 3.125 4.0625 C3.41375 5.031875 3.7025 6.00125 4 7 C1.50907189 8.24546405 0.58919267 7.7767578 -2 7 C-2 6.34 -2 5.68 -2 5 C-2.66 4.67 -3.32 4.34 -4 4 C-4 3.34 -4 2.68 -4 2 C-2.68 2.33 -1.36 2.66 0 3 C0 2.01 0 1.02 0 0 Z " fill="#8A8986" transform="translate(280,240)"/>
<path d="M0 0 C0.99 0.33 1.98 0.66 3 1 C3 1.99 3 2.98 3 4 C4.65 4.33 6.3 4.66 8 5 C6.515 7.475 6.515 7.475 5 10 C4.34 9.34 3.68 8.68 3 8 C3.33 7.34 3.66 6.68 4 6 C3.34 6 2.68 6 2 6 C1.67 6.66 1.34 7.32 1 8 C0 1.125 0 1.125 0 0 Z " fill="#0B0B0B" transform="translate(257,260)"/>
<path d="M0 0 C0.33 0.66 0.66 1.32 1 2 C1.99 2.33 2.98 2.66 4 3 C3.34 4.65 2.68 6.3 2 8 C1.34 8 0.68 8 0 8 C0 8.99 0 9.98 0 11 C-0.66 10.67 -1.32 10.34 -2 10 C-1.34 6.7 -0.68 3.4 0 0 Z " fill="#3A3938" transform="translate(284,241)"/>
<path d="M0 0 C0.33 0.99 0.66 1.98 1 3 C-1.36292656 5.52588702 -2.66462511 6.88820837 -6 8 C-5.67 6.35 -5.34 4.7 -5 3 C-3.35 2.67 -1.7 2.34 0 2 C0 1.34 0 0.68 0 0 Z " fill="#171716" transform="translate(230,287)"/>
<path d="M0 0 C0.61875 0.33 1.2375 0.66 1.875 1 C3.91018344 2.14193235 3.91018344 2.14193235 6 2 C6 2.66 6 3.32 6 4 C4.03533587 5.06775224 2.03144641 6.06553465 0 7 C-0.66 6.67 -1.32 6.34 -2 6 C-1.34 4.02 -0.68 2.04 0 0 Z " fill="#535250" transform="translate(241,257)"/>
<path d="M0 0 C1.65 0 3.3 0 5 0 C4.67 1.32 4.34 2.64 4 4 C2.02 4 0.04 4 -2 4 C-2 3.34 -2 2.68 -2 2 C-1.34 2 -0.68 2 0 2 C0 1.34 0 0.68 0 0 Z " fill="#565654" transform="translate(234,255)"/>
<path d="M0 0 C2.97 0 5.94 0 9 0 C6.04816899 2.95183101 3.04488053 3.08663988 -1 4 C-0.67 2.68 -0.34 1.36 0 0 Z " fill="#3E3E3C" transform="translate(212,273)"/>
<path d="M0 0 C2.97 0.495 2.97 0.495 6 1 C6 1.66 6 2.32 6 3 C5.34 3 4.68 3 4 3 C4 3.66 4 4.32 4 5 C2.68 4.34 1.36 3.68 0 3 C0 2.01 0 1.02 0 0 Z " fill="#71706D" transform="translate(245,282)"/>
<path d="M0 0 C3.375 -0.1875 3.375 -0.1875 7 0 C7.66 0.99 8.32 1.98 9 3 C6 3 3 3 0 3 C0 2.01 0 1.02 0 0 Z " fill="#1D1D1C" transform="translate(237,271)"/>
<path d="M0 0 C0.66 0.33 1.32 0.66 2 1 C2.625 3.0625 2.625 3.0625 3 5 C2.34 5 1.68 5 1 5 C0.67 5.99 0.34 6.98 0 8 C-0.33 7.01 -0.66 6.02 -1 5 C-1.66 4.34 -2.32 3.68 -3 3 C-2.34 3 -1.68 3 -1 3 C-0.67 2.01 -0.34 1.02 0 0 Z " fill="#8A8986" transform="translate(239,256)"/>
<path d="M0 0 C0.33 0 0.66 0 1 0 C1 3.63 1 7.26 1 11 C0.34 11 -0.32 11 -1 11 C-1.33 11.99 -1.66 12.98 -2 14 C-1.03644647 4.58997722 -1.03644647 4.58997722 0 0 Z " fill="#5A5957" transform="translate(275,211)"/>
<path d="M0 0 C2.46800047 1.15173355 4.04783565 2.04783565 6 4 C4.02 4.66 2.04 5.32 0 6 C0 4.02 0 2.04 0 0 Z " fill="#858481" transform="translate(233,274)"/>
<path d="M0 0 C0.66 0 1.32 0 2 0 C1.67 0.99 1.34 1.98 1 3 C0.34 3 -0.32 3 -1 3 C-1 3.66 -1 4.32 -1 5 C-2.32 5.33 -3.64 5.66 -5 6 C-4.67 4.68 -4.34 3.36 -4 2 C-2.68 2 -1.36 2 0 2 C0 1.34 0 0.68 0 0 Z " fill="#3F3E3D" transform="translate(267,268)"/>
<path d="M0 0 C1.5 1.375 1.5 1.375 3 3 C3 3.66 3 4.32 3 5 C2.34 5 1.68 5 1 5 C1 4.34 1 3.68 1 3 C-0.32 3.33 -1.64 3.66 -3 4 C-3 3.01 -3 2.02 -3 1 C-2.01 0.67 -1.02 0.34 0 0 Z " fill="#898885" transform="translate(268,257)"/>
<path d="M0 0 C0.33 0.66 0.66 1.32 1 2 C1.99 2.33 2.98 2.66 4 3 C3.34 4.32 2.68 5.64 2 7 C1.34 7 0.68 7 0 7 C-1.125 2.25 -1.125 2.25 0 0 Z " fill="#807F7C" transform="translate(275,248)"/>
<path d="M0 0 C2.475 0.495 2.475 0.495 5 1 C4.67 1.99 4.34 2.98 4 4 C2.68 3.67 1.36 3.34 0 3 C0 2.01 0 1.02 0 0 Z " fill="#81807D" transform="translate(259,261)"/>
<path d="M0 0 C2.475 0.495 2.475 0.495 5 1 C4.67 1.99 4.34 2.98 4 4 C2.68 4 1.36 4 0 4 C0 2.68 0 1.36 0 0 Z " fill="#9A9895" transform="translate(250,246)"/>
<path d="M0 0 C1.09658936 3.28976808 0.79953138 4.71303767 0 8 C-1.32 7.67 -2.64 7.34 -4 7 C-3.67 5.68 -3.34 4.36 -3 3 C-2.67 3.66 -2.34 4.32 -2 5 C-1.34 3.35 -0.68 1.7 0 0 Z " fill="#4C4B49" transform="translate(272,225)"/>
</svg>
